<svg xmlns="http://www.w3.org/2000/svg" width="115" height="115" viewBox="0 0 115 115"><g transform="translate(-1093 6298)"><g transform="translate(1093 -6298)" fill="#6927ff" stroke="#707070" stroke-width="1"><circle cx="57.5" cy="57.5" r="57.5" stroke="none"/><circle cx="57.5" cy="57.5" r="57" fill="none"/></g><g transform="translate(172.504 -5491.511)"><path d="M1201.29-739.21a2.174,2.174,0,0,1-1.962-1.22,19.116,19.116,0,0,0-1.478-2.5,2.167,2.167,0,0,1-.362-1.632,2.17,2.17,0,0,1,.9-1.41,2.171,2.171,0,0,1,1.252-.4,2.188,2.188,0,0,1,1.791.932,23.262,23.262,0,0,1,1.82,3.075,2.189,2.189,0,0,1-1,2.925A2.2,2.2,0,0,1,1201.29-739.21Z" transform="translate(-191.531 -26.18)" fill="#fff"/><path d="M964.674-648.55a23.255,23.255,0,0,1-22.648-18.321,2.17,2.17,0,0,1,.3-1.644,2.169,2.169,0,0,1,1.378-.948,2.212,2.212,0,0,1,.456-.048,2.194,2.194,0,0,1,2.136,1.731,18.6,18.6,0,0,0,4.395,8.592,17.494,17.494,0,0,1,13.978-6.961,17.528,17.528,0,0,1,13.99,6.966,18.65,18.65,0,0,0,4.8-12.522,18.806,18.806,0,0,0-18.785-18.784,18.7,18.7,0,0,0-15.913,8.8,2.178,2.178,0,0,1-1.852,1.023h0a2.18,2.18,0,0,1-1.161-.335,2.188,2.188,0,0,1-.687-3.013,23.052,23.052,0,0,1,19.614-10.843,23.18,23.18,0,0,1,23.155,23.154A23.181,23.181,0,0,1,964.674-648.55Zm-10.687-7.735a18.6,18.6,0,0,0,10.688,3.365,18.589,18.589,0,0,0,10.7-3.354,13.3,13.3,0,0,0-10.7-5.5A13.27,13.27,0,0,0,953.986-656.285Z" transform="translate(-1.104 -64.572)" fill="#fff"/><path d="M942.682-625.956c-.061,0-.123,0-.186-.008a2.175,2.175,0,0,1-1.49-.773,2.169,2.169,0,0,1-.5-1.595,23.1,23.1,0,0,1,.7-3.979,2.187,2.187,0,0,1,2.106-1.617,2.209,2.209,0,0,1,.572.076,2.188,2.188,0,0,1,1.541,2.678,18.759,18.759,0,0,0-.569,3.224A2.174,2.174,0,0,1,942.682-625.956Z" transform="translate(0 -109.989)" fill="#fff"/><path d="M1006-643.545a8.585,8.585,0,0,1-8.575-8.575A8.586,8.586,0,0,1,1006-660.7a8.586,8.586,0,0,1,8.575,8.577A8.585,8.585,0,0,1,1006-643.545Zm0-12.782a4.211,4.211,0,0,0-4.206,4.207,4.21,4.21,0,0,0,4.206,4.205,4.21,4.21,0,0,0,4.205-4.205A4.211,4.211,0,0,0,1006-656.327Z" transform="translate(-42.437 -90.036)" fill="#fff"/><path d="M1123.736-680.348a2.186,2.186,0,0,1-2.181-2.06,2.188,2.188,0,0,1,2.057-2.306,18.64,18.64,0,0,0,9.612-3.319,13.3,13.3,0,0,0-10.705-5.507,13.3,13.3,0,0,0-2.827.3,2.2,2.2,0,0,1-.462.049,2.2,2.2,0,0,1-2.138-1.719,2.189,2.189,0,0,1,1.67-2.6,17.724,17.724,0,0,1,3.757-.4,17.528,17.528,0,0,1,13.992,6.969,18.665,18.665,0,0,0,4.794-12.525,18.929,18.929,0,0,0-.1-1.994,2.187,2.187,0,0,1,1.942-2.4,2.048,2.048,0,0,1,.234-.013,2.207,2.207,0,0,1,2.169,1.955,23.492,23.492,0,0,1,.128,2.456,23.16,23.16,0,0,1-21.813,23.116Z" transform="translate(-131.593 -54.868)" fill="#fff"/><path d="M1053.508-762.386a2.15,2.15,0,0,1-.653-.1,2.168,2.168,0,0,1-1.281-1.068,2.168,2.168,0,0,1-.152-1.665,23.049,23.049,0,0,1,22.113-16.269,22.944,22.944,0,0,1,14.056,4.752,2.19,2.19,0,0,1,.408,3.063,2.17,2.17,0,0,1-1.737.858,2.167,2.167,0,0,1-1.326-.449,18.6,18.6,0,0,0-11.4-3.854,18.7,18.7,0,0,0-17.941,13.2A2.173,2.173,0,0,1,1053.508-762.386Z" transform="translate(-82.607)" fill="#fff"/><path d="M1113.446-730.174a8.586,8.586,0,0,1-8.576-8.576,8.586,8.586,0,0,1,8.576-8.576,8.585,8.585,0,0,1,8.575,8.576A8.586,8.586,0,0,1,1113.446-730.174Zm0-12.782a4.211,4.211,0,0,0-4.207,4.206,4.211,4.211,0,0,0,4.207,4.206,4.211,4.211,0,0,0,4.205-4.206A4.21,4.21,0,0,0,1113.446-742.956Z" transform="translate(-122.521 -25.464)" fill="#fff"/><path d="M973.517-748.04a2.132,2.132,0,0,1-2.144-2.076l-.351-5.451a2.118,2.118,0,0,1,.6-1.543,2.162,2.162,0,0,1,1.537-.65,2.148,2.148,0,0,1,1.017.26l.617.32c2.035-3.012,6.421-7.4,14.688-7.4a2.187,2.187,0,0,1,2.185,2.185,2.187,2.187,0,0,1-2.185,2.185c-5.81,0-9.053,2.6-10.815,5.042l.885.459a2.129,2.129,0,0,1,1.132,1.783,2.124,2.124,0,0,1-.937,1.88l-.036.024-5.04,2.642a2.124,2.124,0,0,1-1.157.344Z" transform="translate(-22.753 -12.601)" fill="#fff"/><path d="M1118.095-580.543a2.191,2.191,0,0,1-2.185-2.173,2.187,2.187,0,0,1,2.173-2.2c5.811-.033,9.039-2.651,10.788-5.1l-.889-.454a2.13,2.13,0,0,1-1.142-1.776,2.126,2.126,0,0,1,.927-1.885l.035-.024,5.026-2.671a2.124,2.124,0,0,1,1.167-.351,2.133,2.133,0,0,1,2.144,2.064l.383,5.45a2.119,2.119,0,0,1-.6,1.551,2.163,2.163,0,0,1-1.541.655,2.119,2.119,0,0,1-1.006-.254l-.619-.316c-2.018,3.024-6.38,7.439-14.647,7.487h-.012Z" transform="translate(-130.749 -137.381)" fill="#fff"/></g></g></svg>