<svg xmlns="http://www.w3.org/2000/svg" width="115" height="115" viewBox="0 0 115 115"><g transform="translate(-1093 6912)"><g transform="translate(1093 -6912)" fill="#6927ff" stroke="#707070" stroke-width="1"><circle cx="57.5" cy="57.5" r="57.5" stroke="none"/><circle cx="57.5" cy="57.5" r="57" fill="none"/></g><g transform="translate(182.197 -6925.047)"><path d="M951.194,98.047a1.99,1.99,0,0,1,0-3.98h39.925a2.033,2.033,0,0,0,2.031-2.03V59.514a2.034,2.034,0,0,0-2.031-2.031H938.813a2.033,2.033,0,0,0-2.03,2.031V92.037a2.033,2.033,0,0,0,2.03,2.03h4.409a1.99,1.99,0,1,1,0,3.98h-4.409a6.017,6.017,0,0,1-6.01-6.01V59.514a6.017,6.017,0,0,1,6.01-6.011h3.917v-.474a5.773,5.773,0,0,1,5.767-5.767H969.65a1.99,1.99,0,0,1,0,3.98H948.5a1.789,1.789,0,0,0-1.786,1.787V53.5h44.409a6.018,6.018,0,0,1,6.011,6.011V85.359h.491a1.788,1.788,0,0,0,1.786-1.786V56.08a4.844,4.844,0,0,0-4.839-4.838H988.49a1.99,1.99,0,0,1,0-3.98h6.079a8.829,8.829,0,0,1,8.819,8.818V83.573a5.773,5.773,0,0,1-5.766,5.766h-.491v2.7a6.017,6.017,0,0,1-6.011,6.01Z" transform="translate(0)" fill="#fff"/><path d="M1113.425,51.242a1.99,1.99,0,0,1,0-3.98h5.584a1.99,1.99,0,0,1,0,3.98Z" transform="translate(-137.208)" fill="#fff"/><path d="M979.315,142.239a12.1,12.1,0,1,1,12.1-12.1A12.115,12.115,0,0,1,979.315,142.239Zm-3.724-4.887a8.093,8.093,0,0,0,7.447,0,5.4,5.4,0,0,0-7.447,0Zm3.724-15.334a8.114,8.114,0,0,0-6.707,12.691,9.368,9.368,0,0,1,13.414,0,8.114,8.114,0,0,0-6.707-12.691Z" transform="translate(-26.431 -54.363)" fill="#fff"/><path d="M1006.882,149.259a3.777,3.777,0,1,1,3.777-3.777A3.781,3.781,0,0,1,1006.882,149.259Z" transform="translate(-53.999 -72.542)" fill="#fff"/><path d="M1081.6,123.539a1.99,1.99,0,0,1,0-3.98h17.508a1.99,1.99,0,1,1,0,3.98Z" transform="translate(-112.762 -55.532)" fill="#fff"/><path d="M1081.6,151.589a1.99,1.99,0,0,1,0-3.98h17.508a1.99,1.99,0,1,1,0,3.98Z" transform="translate(-112.762 -77.077)" fill="#fff"/><path d="M1119.349,179.643a1.99,1.99,0,1,1,0-3.98h8.753a1.99,1.99,0,1,1,0,3.98Z" transform="translate(-141.758 -98.625)" fill="#fff"/><path d="M1081.6,179.643a1.99,1.99,0,0,1,0-3.98h2.549a1.99,1.99,0,0,1,0,3.98Z" transform="translate(-112.762 -98.625)" fill="#fff"/><path d="M1119.349,207.7a1.99,1.99,0,1,1,0-3.98h8.753a1.99,1.99,0,1,1,0,3.98Z" transform="translate(-141.758 -120.174)" fill="#fff"/><path d="M1081.6,207.7a1.99,1.99,0,0,1,0-3.98h2.549a1.99,1.99,0,0,1,0,3.98Z" transform="translate(-112.762 -120.174)" fill="#fff"/></g></g></svg>