<svg xmlns="http://www.w3.org/2000/svg" width="115" height="115" viewBox="0 0 115 115"><g transform="translate(-1391 6605)"><g transform="translate(1391 -6605)" fill="#6927ff" stroke="#707070" stroke-width="1"><circle cx="57.5" cy="57.5" r="57.5" stroke="none"/><circle cx="57.5" cy="57.5" r="57" fill="none"/></g><g transform="translate(92.179 -6226.493)"><path d="M1356.4-232.9a6.967,6.967,0,0,1-6.959-6.96,6.929,6.929,0,0,1,4.808-6.618v-3.349c0-.064,0-.129.01-.2s-.01-.134-.01-.2V-256.2h-4.18v5.093a2.153,2.153,0,0,1-2.151,2.151h-3.684a2.153,2.153,0,0,1-2.151-2.151,2.153,2.153,0,0,1,2.151-2.151h1.533V-256.2H1333.4a6.93,6.93,0,0,1-6.618,4.808,6.967,6.967,0,0,1-6.959-6.959,6.967,6.967,0,0,1,6.959-6.959,6.93,6.93,0,0,1,6.618,4.809h20.852v-3.072h-.7a3,3,0,0,1-3-2.7l-.361-3.3q-.166-.066-.332-.137l-2.737,2.229a3.018,3.018,0,0,1-1.9.678,2.993,2.993,0,0,1-2.13-.885l-4.038-4.046a3.007,3.007,0,0,1-.207-4.024l2.514-3.094a2.143,2.143,0,0,1,1.67-.795,2.153,2.153,0,0,1,1.356.482,2.13,2.13,0,0,1,.782,1.445,2.138,2.138,0,0,1-.47,1.58l-1.779,2.19,2.392,2.4,2.891-2.354a2.152,2.152,0,0,1,1.357-.483,2.158,2.158,0,0,1,1.018.256,12.164,12.164,0,0,0,2.229.925,2.144,2.144,0,0,1,1.516,1.826l.384,3.509h3.4l.383-3.509a2.146,2.146,0,0,1,1.519-1.827,12,12,0,0,0,2.224-.922,2.158,2.158,0,0,1,1.02-.257,2.15,2.15,0,0,1,1.358.484l2.891,2.354,2.4-2.4-2.354-2.891a2.145,2.145,0,0,1-.227-2.375,12.087,12.087,0,0,0,.923-2.225,2.147,2.147,0,0,1,1.836-1.521l3.711-.387v-2.742a2.153,2.153,0,0,1,2.151-2.151,2.153,2.153,0,0,1,2.151,2.151v3.9a3,3,0,0,1-2.7,2.994l-3.514.368q-.066.164-.135.325l2.229,2.737a3,3,0,0,1-.207,4.03l-4.044,4.045a3,3,0,0,1-2.129.883,3.023,3.023,0,0,1-1.9-.677l-2.738-2.229q-.164.07-.332.137l-.361,3.31a3,3,0,0,1-2.994,2.688h-.7v3.072h20.787a6.93,6.93,0,0,1,6.618-4.809,6.968,6.968,0,0,1,6.959,6.959,6.968,6.968,0,0,1-6.959,6.959,6.93,6.93,0,0,1-6.618-4.808H1367.08v3.025h1.8a2.153,2.153,0,0,1,2.151,2.151,2.154,2.154,0,0,1-2.151,2.151h-3.955a2.154,2.154,0,0,1-2.151-2.151V-256.2h-4.226v5.983a1.966,1.966,0,0,1-.01.2,1.95,1.95,0,0,1,.01.2v3.349a6.929,6.929,0,0,1,4.809,6.618A6.967,6.967,0,0,1,1356.4-232.9Zm0-9.617a2.66,2.66,0,0,0-2.658,2.657,2.661,2.661,0,0,0,2.658,2.658,2.66,2.66,0,0,0,2.658-2.658A2.66,2.66,0,0,0,1356.4-242.513Zm29.556-18.5a2.661,2.661,0,0,0-2.658,2.658,2.661,2.661,0,0,0,2.658,2.658,2.661,2.661,0,0,0,2.657-2.658A2.661,2.661,0,0,0,1385.957-261.01Zm-59.177,0a2.661,2.661,0,0,0-2.658,2.658,2.661,2.661,0,0,0,2.658,2.658,2.661,2.661,0,0,0,2.658-2.658A2.661,2.661,0,0,0,1326.78-261.01Z" transform="translate(0 -50.782)" fill="#fff"/><path d="M1370.713-136.775a6.967,6.967,0,0,1-6.959-6.96,6.929,6.929,0,0,1,4.808-6.618v-4.635a2.154,2.154,0,0,1,2.151-2.151,2.153,2.153,0,0,1,2.151,2.151v4.635a6.93,6.93,0,0,1,4.809,6.618A6.968,6.968,0,0,1,1370.713-136.775Zm0-9.617a2.66,2.66,0,0,0-2.658,2.657,2.66,2.66,0,0,0,2.658,2.658,2.66,2.66,0,0,0,2.658-2.658A2.66,2.66,0,0,0,1370.713-146.393Z" transform="translate(-32.209 -146.902)" fill="#fff"/><path d="M1504.856-136.548a6.967,6.967,0,0,1-6.96-6.96,6.93,6.93,0,0,1,4.809-6.618v-4.553a2.153,2.153,0,0,1,2.151-2.151,2.153,2.153,0,0,1,2.151,2.151v4.553a6.929,6.929,0,0,1,4.808,6.618A6.967,6.967,0,0,1,1504.856-136.548Zm0-9.617a2.66,2.66,0,0,0-2.658,2.657,2.661,2.661,0,0,0,2.658,2.658,2.66,2.66,0,0,0,2.657-2.658A2.66,2.66,0,0,0,1504.856-146.165Z" transform="translate(-130.558 -147.129)" fill="#fff"/><path d="M1380.377-329.74a2.058,2.058,0,0,1-.271-.017l-1.795-.223a2.983,2.983,0,0,1-2.656-2.989v-5.711a3,3,0,0,1,2.7-3l3.516-.367q.067-.165.136-.327l-2.224-2.738a3.007,3.007,0,0,1,.2-4.025l4.041-4.039a2.992,2.992,0,0,1,2.128-.884,3.023,3.023,0,0,1,1.9.676l2.738,2.224q.162-.069.327-.136l.368-3.517a3,3,0,0,1,2.994-2.7h5.711a3,3,0,0,1,3,2.7l.367,3.515q.164.066.327.136l2.739-2.224a3.023,3.023,0,0,1,1.9-.675,2.993,2.993,0,0,1,2.125.879l4.046,4.038a3,3,0,0,1,.211,4.03l-2.231,2.741c.04.095.08.19.119.286l1.618.037.029,0a2.138,2.138,0,0,1,1.448.783,2.137,2.137,0,0,1,.47,1.578,2.164,2.164,0,0,1-2.128,1.93,2.086,2.086,0,0,1-.215-.011l-2.984-.142-.02,0a2.145,2.145,0,0,1-1.838-1.52,11.992,11.992,0,0,0-.922-2.224,2.149,2.149,0,0,1,.226-2.376l2.354-2.892-2.4-2.392-2.892,2.35a2.16,2.16,0,0,1-1.357.481,2.145,2.145,0,0,1-1.016-.256,12.064,12.064,0,0,0-2.225-.923,2.143,2.143,0,0,1-1.521-1.838l-.386-3.711h-3.386l-.388,3.713a2.148,2.148,0,0,1-1.52,1.836,12.107,12.107,0,0,0-2.228.924,2.164,2.164,0,0,1-1.015.254,2.156,2.156,0,0,1-1.355-.481l-2.893-2.349-2.391,2.39,2.349,2.892a2.143,2.143,0,0,1,.227,2.372,12.032,12.032,0,0,0-.924,2.228,2.145,2.145,0,0,1-1.838,1.519l-3.711.387v3.409l.684.085a2.154,2.154,0,0,1,1.869,2.4A2.151,2.151,0,0,1,1380.377-329.74Z" transform="translate(-40.935)" fill="#fff"/><path d="M1433.064-288.281a2.151,2.151,0,0,1-1.414-.53l-4.22-3.676a2.135,2.135,0,0,1-.733-1.474,2.134,2.134,0,0,1,.524-1.561,2.155,2.155,0,0,1,1.622-.737,2.153,2.153,0,0,1,1.412.528l2.584,2.252,6.19-7.237a2.148,2.148,0,0,1,1.635-.753,2.152,2.152,0,0,1,1.4.516,2.155,2.155,0,0,1,.237,3.033l-7.6,8.887a2.164,2.164,0,0,1-1.477.748C1433.163-288.283,1433.114-288.281,1433.064-288.281Z" transform="translate(-78.354 -41.084)" fill="#fff"/></g></g></svg>