<svg xmlns="http://www.w3.org/2000/svg" width="115" height="115" viewBox="0 0 115 115"><g transform="translate(-1391 6298)"><g transform="translate(1391 -6298)" fill="#6927ff" stroke="#707070" stroke-width="1"><circle cx="57.5" cy="57.5" r="57.5" stroke="none"/><circle cx="57.5" cy="57.5" r="57" fill="none"/></g><g transform="translate(-7.766 -5876.862)"><path d="M1428.181-376.272a3.42,3.42,0,0,1-3.415-3.416v-12.034a3.419,3.419,0,0,1,3.415-3.415h6.318a2.111,2.111,0,0,1,2.109,2.109,2.111,2.111,0,0,1-2.109,2.109h-5.515v10.431h10.43v-4.917a2.112,2.112,0,0,1,2.109-2.109,2.111,2.111,0,0,1,2.109,2.109v5.718a3.42,3.42,0,0,1-3.417,3.416Z" transform="translate(0)" fill="#fff"/><path d="M1447.44-374.258a2.112,2.112,0,0,1-1.6-.729l-2.189-2.534a2.113,2.113,0,0,1,.217-2.975,2.107,2.107,0,0,1,1.377-.514,2.113,2.113,0,0,1,1.6.73l.584.677,4.227-4.943a2.107,2.107,0,0,1,1.6-.738,2.112,2.112,0,0,1,1.37.505,2.113,2.113,0,0,1,.233,2.974L1449.043-375a2.111,2.111,0,0,1-1.6.738h-.005Z" transform="translate(-13.808 -7.405)" fill="#fff"/><path d="M1609.185-376.272a3.42,3.42,0,0,1-3.416-3.416v-12.034a3.419,3.419,0,0,1,3.416-3.415h6.316a2.111,2.111,0,0,1,2.109,2.109,2.111,2.111,0,0,1-2.109,2.109h-5.514v10.431h10.431v-4.917a2.111,2.111,0,0,1,2.109-2.109,2.111,2.111,0,0,1,2.109,2.109v5.718a3.42,3.42,0,0,1-3.417,3.416Z" transform="translate(-135.997)" fill="#fff"/><path d="M1628.662-374.258a2.112,2.112,0,0,1-1.595-.729l-2.117-2.449a2.113,2.113,0,0,1,.217-2.975,2.106,2.106,0,0,1,1.378-.514,2.114,2.114,0,0,1,1.6.73l.512.592,4.227-4.943a2.11,2.11,0,0,1,1.6-.738,2.112,2.112,0,0,1,1.369.505,2.113,2.113,0,0,1,.233,2.974L1630.265-375a2.112,2.112,0,0,1-1.6.738h0Z" transform="translate(-150.025 -7.405)" fill="#fff"/><path d="M1428.181-196.469a3.419,3.419,0,0,1-3.415-3.416v-12.034a3.42,3.42,0,0,1,3.415-3.416h6.318a2.111,2.111,0,0,1,2.109,2.109,2.111,2.111,0,0,1-2.109,2.109h-5.515v10.431h10.43V-205.6a2.112,2.112,0,0,1,2.109-2.109,2.112,2.112,0,0,1,2.109,2.109v5.718a3.42,3.42,0,0,1-3.417,3.416Z" transform="translate(0 -135.095)" fill="#fff"/><path d="M1448.144-194.451a2.112,2.112,0,0,1-1.6-.729l-1.955-2.263a2.1,2.1,0,0,1-.507-1.533,2.094,2.094,0,0,1,.725-1.443,2.107,2.107,0,0,1,1.377-.513,2.113,2.113,0,0,1,1.6.73l.35.406,4.227-4.943a2.106,2.106,0,0,1,1.6-.738,2.111,2.111,0,0,1,1.37.506,2.113,2.113,0,0,1,.232,2.974l-5.822,6.808a2.149,2.149,0,0,1-1.567.737h-.036Z" transform="translate(-14.512 -142.503)" fill="#fff"/><path d="M1609.185-196.469a3.419,3.419,0,0,1-3.416-3.416v-12.034a3.42,3.42,0,0,1,3.416-3.416h6.316a2.111,2.111,0,0,1,2.109,2.109,2.111,2.111,0,0,1-2.109,2.109h-5.514v10.431h10.431V-205.6a2.111,2.111,0,0,1,2.109-2.109,2.112,2.112,0,0,1,2.109,2.109v5.718a3.42,3.42,0,0,1-3.417,3.416Z" transform="translate(-135.997 -135.095)" fill="#fff"/><path d="M1628.7-194.451a2.108,2.108,0,0,1-1.595-.73l-2.1-2.431a2.092,2.092,0,0,1-.509-1.531,2.094,2.094,0,0,1,.724-1.443,2.1,2.1,0,0,1,1.378-.515,2.11,2.11,0,0,1,1.6.731l.5.575,4.228-4.944a2.108,2.108,0,0,1,1.6-.738,2.11,2.11,0,0,1,1.37.506,2.113,2.113,0,0,1,.232,2.974l-5.822,6.808a2.147,2.147,0,0,1-1.568.737h-.035Z" transform="translate(-150.064 -142.503)" fill="#fff"/><path d="M1453.78-291.667a2.117,2.117,0,0,1-1.978-1.379,25.783,25.783,0,0,1-1.59-8.951,25.752,25.752,0,0,1,1.869-9.674,2.1,2.1,0,0,1,1.958-1.32,2.1,2.1,0,0,1,.783.151,2.1,2.1,0,0,1,1.155,1.13,2.1,2.1,0,0,1,.016,1.614,21.578,21.578,0,0,0-1.562,8.1,21.58,21.58,0,0,0,1.329,7.491,2.112,2.112,0,0,1-1.25,2.709A2.091,2.091,0,0,1,1453.78-291.667Z" transform="translate(-19.119 -61.721)" fill="#fff"/><path d="M1519-183.473a25.7,25.7,0,0,1-10.433-2.188,2.092,2.092,0,0,1-1.115-1.166,2.093,2.093,0,0,1,.036-1.613,2.107,2.107,0,0,1,1.928-1.26,2.1,2.1,0,0,1,.853.181A21.521,21.521,0,0,0,1519-187.69a21.9,21.9,0,0,0,2.442-.135,2.181,2.181,0,0,1,.226-.012,2.112,2.112,0,0,1,2.105,1.872,2.111,2.111,0,0,1-1.86,2.331A26.246,26.246,0,0,1,1519-183.473Z" transform="translate(-62.021 -154.356)" fill="#fff"/><path d="M1577.292-183.476a2.1,2.1,0,0,1-2.008-1.464,2.1,2.1,0,0,1,.132-1.61,2.1,2.1,0,0,1,1.231-1.044c.419-.134.842-.284,1.261-.449a2.1,2.1,0,0,1,.771-.146,2.1,2.1,0,0,1,1.962,1.338,2.1,2.1,0,0,1-.029,1.614,2.1,2.1,0,0,1-1.163,1.12c-.486.191-1,.373-1.513.54A2.127,2.127,0,0,1,1577.292-183.476Z" transform="translate(-113.015 -155.492)" fill="#fff"/><path d="M1636.962-291.669a2.09,2.09,0,0,1-.73-.131,2.091,2.091,0,0,1-1.185-1.094,2.1,2.1,0,0,1-.064-1.612,21.61,21.61,0,0,0,1.329-7.493,21.537,21.537,0,0,0-1.563-8.1,2.112,2.112,0,0,1,1.167-2.745,2.107,2.107,0,0,1,.787-.152,2.1,2.1,0,0,1,1.958,1.319,25.753,25.753,0,0,1,1.87,9.675,25.811,25.811,0,0,1-1.589,8.95A2.116,2.116,0,0,1,1636.962-291.669Z" transform="translate(-157.656 -61.72)" fill="#fff"/><path d="M1550.53-366.742a2.076,2.076,0,0,1-.837-.174,21.536,21.536,0,0,0-8.58-1.763c-.546,0-1.094.02-1.629.06-.049,0-.113.008-.177.008h0a2.107,2.107,0,0,1-2.083-1.953,2.092,2.092,0,0,1,.5-1.531,2.1,2.1,0,0,1,1.442-.729c.629-.048,1.283-.073,1.945-.073a25.707,25.707,0,0,1,10.254,2.111,2.094,2.094,0,0,1,1.124,1.157,2.094,2.094,0,0,1-.024,1.614A2.108,2.108,0,0,1,1550.53-366.742Z" transform="translate(-84.49 -16.711)" fill="#fff"/><path d="M1510.736-364.03a2.1,2.1,0,0,1-1.955-1.317,2.113,2.113,0,0,1,1.164-2.747c.762-.308,1.552-.583,2.349-.819a2.127,2.127,0,0,1,.592-.084,2.125,2.125,0,0,1,2.029,1.509,2.114,2.114,0,0,1-1.424,2.621c-.674.2-1.334.428-1.964.684A2.114,2.114,0,0,1,1510.736-364.03Z" transform="translate(-63.009 -19.641)" fill="#fff"/><path d="M1528.706-311.876a8.359,8.359,0,0,1-8.349-8.349,8.359,8.359,0,0,1,8.349-8.349,8.36,8.36,0,0,1,8.351,8.349A8.36,8.36,0,0,1,1528.706-311.876Zm0-12.481a4.136,4.136,0,0,0-4.132,4.132,4.136,4.136,0,0,0,4.132,4.132,4.137,4.137,0,0,0,4.133-4.132A4.137,4.137,0,0,0,1528.706-324.357Z" transform="translate(-71.823 -50.012)" fill="#fff"/><path d="M1502.4-248.345a2.106,2.106,0,0,1-1.394-.526,2.112,2.112,0,0,1-.189-2.977,17.079,17.079,0,0,1,12.813-5.786,17.14,17.14,0,0,1,12.606,5.547,2.112,2.112,0,0,1-.13,2.98,2.1,2.1,0,0,1-1.423.554,2.123,2.123,0,0,1-1.556-.683,12.909,12.909,0,0,0-9.5-4.18,12.856,12.856,0,0,0-9.647,4.356A2.112,2.112,0,0,1,1502.4-248.345Z" transform="translate(-56.747 -103.314)" fill="#fff"/></g></g></svg>