<svg xmlns="http://www.w3.org/2000/svg" width="115" height="115" viewBox="0 0 115 115"><g transform="translate(-1093 6605)"><g transform="translate(1093 -6605)" fill="#6927ff" stroke="#707070" stroke-width="1"><circle cx="57.5" cy="57.5" r="57.5" stroke="none"/><circle cx="57.5" cy="57.5" r="57" fill="none"/></g><g transform="translate(604.494 -7411.928)"><path d="M681.49,982.3a6.571,6.571,0,0,1-6.563-6.564v-9.053a6.527,6.527,0,0,1,3.66-5.885v-3.936a10.389,10.389,0,0,1,15.383-9.1,2.221,2.221,0,0,1-2.138,3.893,5.947,5.947,0,0,0-8.805,5.211v3.257h11.886v-3.257a5.932,5.932,0,0,0-.343-2,2.22,2.22,0,0,1,4.183-1.492,10.371,10.371,0,0,1,.6,3.488v3.956a6.536,6.536,0,0,1,3.619,5.864v9.053a6.571,6.571,0,0,1-6.564,6.564Zm0-17.74a2.125,2.125,0,0,0-2.123,2.123v9.053a2.125,2.125,0,0,0,2.123,2.123h14.918a2.125,2.125,0,0,0,2.123-2.123v-9.053a2.126,2.126,0,0,0-2.123-2.123Z" transform="translate(-121.88 -84.915)" fill="#fff"/><path d="M712.243,1031.542a2.238,2.238,0,0,1-1.637-.758l-2.1-2.4a2.22,2.22,0,1,1,3.341-2.925l.507.579,4.9-5.1a2.22,2.22,0,1,1,3.2,3.077l-6.572,6.842a2.234,2.234,0,0,1-1.6.682Z" transform="translate(-146.363 -139.604)" fill="#fff"/><path d="M581.338,859.628a2.227,2.227,0,0,1-2.172-1.771,27,27,0,0,0-49.8-8.012,2.229,2.229,0,0,1-1.923,1.108h0a2.221,2.221,0,0,1-1.918-3.335,31.439,31.439,0,0,1,57.989,9.341,2.218,2.218,0,0,1-1.724,2.623A2.169,2.169,0,0,1,581.338,859.628Z" transform="translate(-10.909 0)" fill="#fff"/><path d="M512.728,924.928c-.061,0-.123,0-.186-.008a2.218,2.218,0,0,1-2.027-2.406,31.238,31.238,0,0,1,.953-5.4,2.22,2.22,0,1,1,4.287,1.153,26.908,26.908,0,0,0-.818,4.632A2.207,2.207,0,0,1,512.728,924.928Z" transform="translate(0 -61.93)" fill="#fff"/><path d="M599.677,901.013A11.123,11.123,0,1,1,610.8,889.89,11.135,11.135,0,0,1,599.677,901.013Zm0-17.807a6.683,6.683,0,1,0,6.683,6.683A6.69,6.69,0,0,0,599.677,883.206Z" transform="translate(-57.855 -34.72)" fill="#fff"/><path d="M542.872,993.633a31.4,31.4,0,0,1-30.917-25.745,2.219,2.219,0,0,1,1.785-2.583,2.268,2.268,0,0,1,.4-.036,2.218,2.218,0,0,1,2.179,1.82,26.741,26.741,0,0,0,7.135,13.876,23.783,23.783,0,0,1,19.411-10.2,23.443,23.443,0,0,1,9.558,2.015,2.221,2.221,0,0,1-.9,4.251h0a2.2,2.2,0,0,1-.9-.192,19.033,19.033,0,0,0-7.757-1.633,19.234,19.234,0,0,0-16.041,8.708,26.758,26.758,0,0,0,16.045,5.279,27.4,27.4,0,0,0,4.118-.311,2.22,2.22,0,0,1,.672,4.389A31.807,31.807,0,0,1,542.872,993.633Z" transform="translate(-1.046 -98.842)" fill="#fff"/></g></g></svg>