<svg xmlns="http://www.w3.org/2000/svg" width="115" height="115" viewBox="0 0 115 115"><g transform="translate(-1391 6912)"><g transform="translate(1391 -6912)" fill="#6927ff" stroke="#707070" stroke-width="1"><circle cx="57.5" cy="57.5" r="57.5" stroke="none"/><circle cx="57.5" cy="57.5" r="57" fill="none"/></g><g transform="translate(989.837 -6884.027)"><path d="M639.761,54.656a2.243,2.243,0,0,1-1.62-.7,27.642,27.642,0,0,0-2.123-2,2.238,2.238,0,0,1,2.891-3.417,31.946,31.946,0,0,1,2.471,2.33,2.238,2.238,0,0,1-1.619,3.782Z" transform="translate(-159.71 -42.864)" fill="#fff"/><path d="M436.02,51.3a2.233,2.233,0,0,1-1.711-.794,32,32,0,0,1-7.421-18.289H421.4a2.238,2.238,0,1,1,0-4.476h5.486A31.877,31.877,0,0,1,456.472-1.775v-5.96a2.241,2.241,0,0,1,2.238-2.238,2.24,2.24,0,0,1,2.238,2.238v5.973a32.01,32.01,0,0,1,12.641,3.634,2.239,2.239,0,0,1-2.1,3.952,27.485,27.485,0,0,0-10.537-3.1V7.838a2.238,2.238,0,1,1-4.476,0V2.712a27.4,27.4,0,0,0-25.1,25.032h5.6a2.238,2.238,0,0,1,0,4.476H431.38a27.5,27.5,0,0,0,6.35,15.4A2.238,2.238,0,0,1,436.02,51.3Z" transform="translate(0)" fill="#fff"/><path d="M512.6,131.28a2.241,2.241,0,0,1-2.238-2.238V123.42a31.542,31.542,0,0,1-17.434-6.675,2.238,2.238,0,0,1,2.759-3.525,27.1,27.1,0,0,0,14.675,5.711V113.47a2.238,2.238,0,0,1,4.476,0v5.45A27.4,27.4,0,0,0,539.8,93.9h-5.458a2.238,2.238,0,0,1,0-4.476h5.453a27.31,27.31,0,0,0-4.214-12.507,2.238,2.238,0,1,1,3.767-2.416,31.777,31.777,0,0,1,4.936,14.923h5.631a2.238,2.238,0,0,1,0,4.476h-5.628a31.879,31.879,0,0,1-29.444,29.51v5.632A2.241,2.241,0,0,1,512.6,131.28Z" transform="translate(-53.894 -61.679)" fill="#fff"/><path d="M550.5,139.381a2.238,2.238,0,0,1,0-4.476h1.4V124.042h-.5a2.238,2.238,0,1,1,0-4.476h2.741a2.24,2.24,0,0,1,2.238,2.238v13.1h1.484a2.238,2.238,0,0,1,0,4.476Z" transform="translate(-95.428 -95.753)" fill="#fff"/><path d="M556.291,92.407a3.7,3.7,0,1,1,3.7-3.7A3.708,3.708,0,0,1,556.291,92.407Z" transform="translate(-98.625 -70.202)" fill="#fff"/></g></g></svg>